<svg width="100" height="100" viewBox="0 0 100 100" fill="none" xmlns="http://www.w3.org/2000/svg">
<path d="M65.6 65.4C68.5 65.1 70.7 62.6 70.6 59.6C70.5 56.6 68 54.2 65 54.2H64.8C61.7 54.3 59.3 56.9 59.4 60C59.5 61.5 60.1 62.8 61 63.7C57.6 70.4 52.4 75.3 44.6 79.4C39.3 82.2 33.8 83.2 28.3 82.5C23.8 81.9 20.3 79.9 18.1 76.6C14.9 71.7 14.6 66.4 17.3 61.1C19.2 57.3 22.2 54.5 24.1 53.1C23.7 51.8 23.1 49.6 22.8 48C8.30001 58.5 9.80001 72.7 14.2 79.4C17.5 84.4 24.2 87.5 31.6 87.5C33.6 87.5 35.6 87.3 37.6 86.8C50.4 84.3 60.1 76.7 65.6 65.4V65.4Z" fill="white"/>
<path d="M83.2001 53C75.6001 44.1 64.4001 39.2 51.6001 39.2H50.0001C49.1001 37.4 47.2001 36.2 45.1001 36.2H44.9001C41.8001 36.3 39.4001 38.9 39.5001 42C39.6001 45 42.1001 47.4 45.1001 47.4H45.3001C47.5001 47.3 49.4001 45.9 50.2001 44H52.0001C59.6001 44 66.8001 46.2 73.3001 50.5C78.3001 53.8 81.9001 58.0999 83.9001 63.2999C85.6001 67.4999 85.5001 71.5999 83.7001 75.0999C80.9001 80.3999 76.2001 83.3 70.0001 83.3C66.0001 83.3 62.2001 82.0999 60.2001 81.1999C59.1001 82.1999 57.1001 83.8 55.7001 84.8C60.0001 86.8 64.4001 87.9 68.6001 87.9C78.2001 87.9 85.3001 82.6 88.0001 77.3C90.9001 71.5 90.7001 61.5 83.2001 53Z" fill="white"/>
<path d="M32.4 67.1C32.5 70.1 35 72.5 38 72.5H38.2C41.3 72.4 43.7 69.8 43.6 66.7C43.5 63.7 41 61.3 38 61.3H37.8C37.6 61.3 37.3 61.3001 37.1 61.4001C33 54.6001 31.3 47.2001 31.9 39.2001C32.3 33.2001 34.3 28 37.8 23.7C40.7 20 46.3 18.2 50.1 18.1C60.7 17.9 65.2 31.1001 65.5 36.4001C66.8 36.7001 69 37.4001 70.5 37.9001C69.3 21.7001 59.3 13.3 49.7 13.3C40.7 13.3 32.4 19.8 29.1 29.4C24.5 42.2 27.5 54.5 33.1 64.2C32.6 64.9 32.3 66 32.4 67.1V67.1Z" fill="white"/>
</svg>
